<mxfile host="app.diagrams.net" agent="Mozilla/5.0 (Macintosh; Intel Mac OS X 10_15_7) AppleWebKit/537.36 (KHTML, like Gecko) Chrome/127.0.0.0 Safari/537.36" version="24.7.7">
  <diagram name="Page-1" id="bJFeGKUHQEYtcCeYnfYT">
    <mxGraphModel dx="877" dy="588" grid="1" gridSize="10" guides="1" tooltips="1" connect="1" arrows="1" fold="1" page="1" pageScale="1" pageWidth="850" pageHeight="1100" math="0" shadow="0">
      <root>
        <mxCell id="0" />
        <mxCell id="1" parent="0" />
        <mxCell id="Hz8VNVOdCgkLCpa24J2F-1" value="Region - eu-central-1" style="points=[[0,0],[0.25,0],[0.5,0],[0.75,0],[1,0],[1,0.25],[1,0.5],[1,0.75],[1,1],[0.75,1],[0.5,1],[0.25,1],[0,1],[0,0.75],[0,0.5],[0,0.25]];outlineConnect=0;gradientColor=none;html=1;whiteSpace=wrap;fontSize=12;fontStyle=0;container=1;pointerEvents=0;collapsible=0;recursiveResize=0;shape=mxgraph.aws4.group;grIcon=mxgraph.aws4.group_region;strokeColor=#00A4A6;fillColor=none;verticalAlign=top;align=left;spacingLeft=30;fontColor=#147EBA;dashed=1;" vertex="1" parent="1">
          <mxGeometry x="40" y="110" width="800" height="770" as="geometry" />
        </mxCell>
        <mxCell id="Hz8VNVOdCgkLCpa24J2F-16" value="" style="sketch=0;outlineConnect=0;fontColor=#232F3E;gradientColor=none;fillColor=#8C4FFF;strokeColor=none;dashed=0;verticalLabelPosition=bottom;verticalAlign=top;align=center;html=1;fontSize=12;fontStyle=0;aspect=fixed;pointerEvents=1;shape=mxgraph.aws4.internet_gateway;" vertex="1" parent="Hz8VNVOdCgkLCpa24J2F-1">
          <mxGeometry x="361" y="50" width="78" height="78" as="geometry" />
        </mxCell>
        <mxCell id="Hz8VNVOdCgkLCpa24J2F-2" value="VPC" style="points=[[0,0],[0.25,0],[0.5,0],[0.75,0],[1,0],[1,0.25],[1,0.5],[1,0.75],[1,1],[0.75,1],[0.5,1],[0.25,1],[0,1],[0,0.75],[0,0.5],[0,0.25]];outlineConnect=0;gradientColor=none;html=1;whiteSpace=wrap;fontSize=12;fontStyle=0;container=1;pointerEvents=0;collapsible=0;recursiveResize=0;shape=mxgraph.aws4.group;grIcon=mxgraph.aws4.group_vpc2;strokeColor=#8C4FFF;fillColor=none;verticalAlign=top;align=left;spacingLeft=30;fontColor=#AAB7B8;dashed=0;" vertex="1" parent="1">
          <mxGeometry x="80" y="200" width="720" height="640" as="geometry" />
        </mxCell>
        <mxCell id="Hz8VNVOdCgkLCpa24J2F-13" value="Availability Zone eu-central-1a" style="fillColor=none;strokeColor=#147EBA;dashed=1;verticalAlign=top;fontStyle=0;fontColor=#147EBA;whiteSpace=wrap;html=1;" vertex="1" parent="Hz8VNVOdCgkLCpa24J2F-2">
          <mxGeometry x="60" y="80" width="200" height="500" as="geometry" />
        </mxCell>
        <mxCell id="Hz8VNVOdCgkLCpa24J2F-14" value="Availability Zone eu-central-1b" style="fillColor=none;strokeColor=#147EBA;dashed=1;verticalAlign=top;fontStyle=0;fontColor=#147EBA;whiteSpace=wrap;html=1;" vertex="1" parent="Hz8VNVOdCgkLCpa24J2F-2">
          <mxGeometry x="460" y="80" width="200" height="500" as="geometry" />
        </mxCell>
        <mxCell id="Hz8VNVOdCgkLCpa24J2F-3" value="Public subnet 1" style="points=[[0,0],[0.25,0],[0.5,0],[0.75,0],[1,0],[1,0.25],[1,0.5],[1,0.75],[1,1],[0.75,1],[0.5,1],[0.25,1],[0,1],[0,0.75],[0,0.5],[0,0.25]];outlineConnect=0;gradientColor=none;html=1;whiteSpace=wrap;fontSize=12;fontStyle=0;container=1;pointerEvents=0;collapsible=0;recursiveResize=0;shape=mxgraph.aws4.group;grIcon=mxgraph.aws4.group_security_group;grStroke=0;strokeColor=#7AA116;fillColor=#F2F6E8;verticalAlign=top;align=left;spacingLeft=30;fontColor=#248814;dashed=0;" vertex="1" parent="Hz8VNVOdCgkLCpa24J2F-2">
          <mxGeometry x="80" y="121" width="160" height="160" as="geometry" />
        </mxCell>
        <mxCell id="Hz8VNVOdCgkLCpa24J2F-15" value="" style="sketch=0;outlineConnect=0;fontColor=#232F3E;gradientColor=none;fillColor=#8C4FFF;strokeColor=none;dashed=0;verticalLabelPosition=bottom;verticalAlign=top;align=center;html=1;fontSize=12;fontStyle=0;aspect=fixed;pointerEvents=1;shape=mxgraph.aws4.nat_gateway;" vertex="1" parent="Hz8VNVOdCgkLCpa24J2F-3">
          <mxGeometry x="50" y="50" width="60" height="60" as="geometry" />
        </mxCell>
        <mxCell id="Hz8VNVOdCgkLCpa24J2F-4" value="Public subnet 2" style="points=[[0,0],[0.25,0],[0.5,0],[0.75,0],[1,0],[1,0.25],[1,0.5],[1,0.75],[1,1],[0.75,1],[0.5,1],[0.25,1],[0,1],[0,0.75],[0,0.5],[0,0.25]];outlineConnect=0;gradientColor=none;html=1;whiteSpace=wrap;fontSize=12;fontStyle=0;container=1;pointerEvents=0;collapsible=0;recursiveResize=0;shape=mxgraph.aws4.group;grIcon=mxgraph.aws4.group_security_group;grStroke=0;strokeColor=#7AA116;fillColor=#F2F6E8;verticalAlign=top;align=left;spacingLeft=30;fontColor=#248814;dashed=0;" vertex="1" parent="Hz8VNVOdCgkLCpa24J2F-2">
          <mxGeometry x="480" y="120" width="160" height="160" as="geometry" />
        </mxCell>
        <mxCell id="Hz8VNVOdCgkLCpa24J2F-30" value="NAT Gateway" style="text;strokeColor=none;align=center;fillColor=none;html=1;verticalAlign=middle;whiteSpace=wrap;rounded=0;" vertex="1" parent="Hz8VNVOdCgkLCpa24J2F-4">
          <mxGeometry y="90" width="60" height="30" as="geometry" />
        </mxCell>
        <mxCell id="Hz8VNVOdCgkLCpa24J2F-5" value="Private subnet 1" style="points=[[0,0],[0.25,0],[0.5,0],[0.75,0],[1,0],[1,0.25],[1,0.5],[1,0.75],[1,1],[0.75,1],[0.5,1],[0.25,1],[0,1],[0,0.75],[0,0.5],[0,0.25]];outlineConnect=0;gradientColor=none;html=1;whiteSpace=wrap;fontSize=12;fontStyle=0;container=1;pointerEvents=0;collapsible=0;recursiveResize=0;shape=mxgraph.aws4.group;grIcon=mxgraph.aws4.group_security_group;grStroke=0;strokeColor=#00A4A6;fillColor=#E6F6F7;verticalAlign=top;align=left;spacingLeft=30;fontColor=#147EBA;dashed=0;" vertex="1" parent="Hz8VNVOdCgkLCpa24J2F-2">
          <mxGeometry x="79" y="401" width="160" height="160" as="geometry" />
        </mxCell>
        <mxCell id="Hz8VNVOdCgkLCpa24J2F-12" value="" style="sketch=0;points=[[0,0,0],[0.25,0,0],[0.5,0,0],[0.75,0,0],[1,0,0],[0,1,0],[0.25,1,0],[0.5,1,0],[0.75,1,0],[1,1,0],[0,0.25,0],[0,0.5,0],[0,0.75,0],[1,0.25,0],[1,0.5,0],[1,0.75,0]];outlineConnect=0;fontColor=#232F3E;fillColor=#ED7100;strokeColor=#ffffff;dashed=0;verticalLabelPosition=bottom;verticalAlign=top;align=center;html=1;fontSize=12;fontStyle=0;aspect=fixed;shape=mxgraph.aws4.resourceIcon;resIcon=mxgraph.aws4.ec2;" vertex="1" parent="Hz8VNVOdCgkLCpa24J2F-5">
          <mxGeometry x="50" y="50" width="60" height="60" as="geometry" />
        </mxCell>
        <mxCell id="Hz8VNVOdCgkLCpa24J2F-35" value="EC2" style="text;strokeColor=none;align=center;fillColor=none;html=1;verticalAlign=middle;whiteSpace=wrap;rounded=0;" vertex="1" parent="Hz8VNVOdCgkLCpa24J2F-5">
          <mxGeometry x="50" y="110" width="60" height="30" as="geometry" />
        </mxCell>
        <mxCell id="Hz8VNVOdCgkLCpa24J2F-6" value="Private subnet 2" style="points=[[0,0],[0.25,0],[0.5,0],[0.75,0],[1,0],[1,0.25],[1,0.5],[1,0.75],[1,1],[0.75,1],[0.5,1],[0.25,1],[0,1],[0,0.75],[0,0.5],[0,0.25]];outlineConnect=0;gradientColor=none;html=1;whiteSpace=wrap;fontSize=12;fontStyle=0;container=1;pointerEvents=0;collapsible=0;recursiveResize=0;shape=mxgraph.aws4.group;grIcon=mxgraph.aws4.group_security_group;grStroke=0;strokeColor=#00A4A6;fillColor=#E6F6F7;verticalAlign=top;align=left;spacingLeft=30;fontColor=#147EBA;dashed=0;" vertex="1" parent="Hz8VNVOdCgkLCpa24J2F-2">
          <mxGeometry x="480" y="400" width="160" height="160" as="geometry" />
        </mxCell>
        <mxCell id="Hz8VNVOdCgkLCpa24J2F-11" value="" style="sketch=0;points=[[0,0,0],[0.25,0,0],[0.5,0,0],[0.75,0,0],[1,0,0],[0,1,0],[0.25,1,0],[0.5,1,0],[0.75,1,0],[1,1,0],[0,0.25,0],[0,0.5,0],[0,0.75,0],[1,0.25,0],[1,0.5,0],[1,0.75,0]];outlineConnect=0;fontColor=#232F3E;fillColor=#ED7100;strokeColor=#ffffff;dashed=0;verticalLabelPosition=bottom;verticalAlign=top;align=center;html=1;fontSize=12;fontStyle=0;aspect=fixed;shape=mxgraph.aws4.resourceIcon;resIcon=mxgraph.aws4.ec2;" vertex="1" parent="Hz8VNVOdCgkLCpa24J2F-6">
          <mxGeometry x="50" y="50" width="60" height="60" as="geometry" />
        </mxCell>
        <mxCell id="Hz8VNVOdCgkLCpa24J2F-36" value="EC2" style="text;strokeColor=none;align=center;fillColor=none;html=1;verticalAlign=middle;whiteSpace=wrap;rounded=0;" vertex="1" parent="Hz8VNVOdCgkLCpa24J2F-6">
          <mxGeometry x="50" y="110" width="60" height="30" as="geometry" />
        </mxCell>
        <mxCell id="Hz8VNVOdCgkLCpa24J2F-23" value="" style="edgeStyle=orthogonalEdgeStyle;rounded=0;orthogonalLoop=1;jettySize=auto;html=1;startArrow=classic;startFill=1;" edge="1" parent="Hz8VNVOdCgkLCpa24J2F-2" source="Hz8VNVOdCgkLCpa24J2F-17" target="Hz8VNVOdCgkLCpa24J2F-12">
          <mxGeometry relative="1" as="geometry">
            <mxPoint x="360" y="308.0008863434921" as="targetPoint" />
            <Array as="points">
              <mxPoint x="350" y="360" />
              <mxPoint x="170" y="360" />
            </Array>
          </mxGeometry>
        </mxCell>
        <mxCell id="Hz8VNVOdCgkLCpa24J2F-17" value="" style="sketch=0;outlineConnect=0;fontColor=#232F3E;gradientColor=none;fillColor=#8C4FFF;strokeColor=none;dashed=0;verticalLabelPosition=bottom;verticalAlign=top;align=center;html=1;fontSize=12;fontStyle=0;aspect=fixed;pointerEvents=1;shape=mxgraph.aws4.application_load_balancer;" vertex="1" parent="Hz8VNVOdCgkLCpa24J2F-2">
          <mxGeometry x="321" y="150" width="78" height="78" as="geometry" />
        </mxCell>
        <mxCell id="Hz8VNVOdCgkLCpa24J2F-18" value="" style="sketch=0;outlineConnect=0;fontColor=#232F3E;gradientColor=none;fillColor=#8C4FFF;strokeColor=none;dashed=0;verticalLabelPosition=bottom;verticalAlign=top;align=center;html=1;fontSize=12;fontStyle=0;aspect=fixed;pointerEvents=1;shape=mxgraph.aws4.nat_gateway;" vertex="1" parent="Hz8VNVOdCgkLCpa24J2F-2">
          <mxGeometry x="530" y="170" width="60" height="60" as="geometry" />
        </mxCell>
        <mxCell id="Hz8VNVOdCgkLCpa24J2F-24" value="" style="edgeStyle=orthogonalEdgeStyle;rounded=0;orthogonalLoop=1;jettySize=auto;html=1;startArrow=classic;startFill=1;" edge="1" parent="Hz8VNVOdCgkLCpa24J2F-2" source="Hz8VNVOdCgkLCpa24J2F-17" target="Hz8VNVOdCgkLCpa24J2F-11">
          <mxGeometry relative="1" as="geometry">
            <mxPoint x="450.5" y="233" as="sourcePoint" />
            <mxPoint x="269.5" y="447" as="targetPoint" />
            <Array as="points">
              <mxPoint x="370" y="360" />
              <mxPoint x="540" y="360" />
            </Array>
          </mxGeometry>
        </mxCell>
        <mxCell id="Hz8VNVOdCgkLCpa24J2F-25" value="Application Load Balancer" style="text;strokeColor=none;align=center;fillColor=none;html=1;verticalAlign=middle;whiteSpace=wrap;rounded=0;" vertex="1" parent="Hz8VNVOdCgkLCpa24J2F-2">
          <mxGeometry x="270" y="228" width="60" height="30" as="geometry" />
        </mxCell>
        <mxCell id="Hz8VNVOdCgkLCpa24J2F-26" value="NAT Gateway" style="text;strokeColor=none;align=center;fillColor=none;html=1;verticalAlign=middle;whiteSpace=wrap;rounded=0;" vertex="1" parent="Hz8VNVOdCgkLCpa24J2F-2">
          <mxGeometry x="80" y="210" width="60" height="30" as="geometry" />
        </mxCell>
        <mxCell id="Hz8VNVOdCgkLCpa24J2F-28" value="" style="edgeStyle=orthogonalEdgeStyle;rounded=0;orthogonalLoop=1;jettySize=auto;html=1;" edge="1" parent="Hz8VNVOdCgkLCpa24J2F-2" source="Hz8VNVOdCgkLCpa24J2F-12" target="Hz8VNVOdCgkLCpa24J2F-15">
          <mxGeometry relative="1" as="geometry">
            <mxPoint x="150" y="332" as="targetPoint" />
            <Array as="points">
              <mxPoint x="160" y="390" />
              <mxPoint x="160" y="390" />
            </Array>
          </mxGeometry>
        </mxCell>
        <mxCell id="Hz8VNVOdCgkLCpa24J2F-29" value="" style="edgeStyle=orthogonalEdgeStyle;rounded=0;orthogonalLoop=1;jettySize=auto;html=1;" edge="1" parent="Hz8VNVOdCgkLCpa24J2F-2" source="Hz8VNVOdCgkLCpa24J2F-11" target="Hz8VNVOdCgkLCpa24J2F-18">
          <mxGeometry relative="1" as="geometry">
            <mxPoint x="550" y="390" as="sourcePoint" />
            <mxPoint x="551.25" y="228" as="targetPoint" />
          </mxGeometry>
        </mxCell>
        <mxCell id="Hz8VNVOdCgkLCpa24J2F-34" value="Internet Gateway" style="text;strokeColor=none;align=center;fillColor=none;html=1;verticalAlign=middle;whiteSpace=wrap;rounded=0;" vertex="1" parent="Hz8VNVOdCgkLCpa24J2F-2">
          <mxGeometry x="285" y="30" width="60" height="30" as="geometry" />
        </mxCell>
        <mxCell id="Hz8VNVOdCgkLCpa24J2F-7" value="" style="sketch=0;outlineConnect=0;fontColor=#232F3E;gradientColor=none;fillColor=#232F3D;strokeColor=none;dashed=0;verticalLabelPosition=bottom;verticalAlign=top;align=center;html=1;fontSize=12;fontStyle=0;aspect=fixed;pointerEvents=1;shape=mxgraph.aws4.internet_alt2;" vertex="1" parent="1">
          <mxGeometry x="401" y="10" width="78" height="78" as="geometry" />
        </mxCell>
        <mxCell id="Hz8VNVOdCgkLCpa24J2F-21" value="" style="edgeStyle=orthogonalEdgeStyle;rounded=0;orthogonalLoop=1;jettySize=auto;html=1;startArrow=classic;startFill=1;" edge="1" parent="1" source="Hz8VNVOdCgkLCpa24J2F-16" target="Hz8VNVOdCgkLCpa24J2F-17">
          <mxGeometry relative="1" as="geometry">
            <mxPoint x="440" y="327" as="targetPoint" />
          </mxGeometry>
        </mxCell>
        <mxCell id="Hz8VNVOdCgkLCpa24J2F-31" value="" style="edgeStyle=orthogonalEdgeStyle;html=1;endArrow=none;elbow=vertical;startArrow=block;startFill=1;strokeColor=#545B64;rounded=0;" edge="1" parent="1" source="Hz8VNVOdCgkLCpa24J2F-16" target="Hz8VNVOdCgkLCpa24J2F-15">
          <mxGeometry width="100" relative="1" as="geometry">
            <mxPoint x="280" y="390" as="sourcePoint" />
            <mxPoint x="380" y="390" as="targetPoint" />
            <Array as="points">
              <mxPoint x="240" y="210" />
            </Array>
          </mxGeometry>
        </mxCell>
        <mxCell id="Hz8VNVOdCgkLCpa24J2F-32" value="" style="edgeStyle=orthogonalEdgeStyle;html=1;endArrow=none;elbow=vertical;startArrow=block;startFill=1;strokeColor=#545B64;rounded=0;" edge="1" parent="1" source="Hz8VNVOdCgkLCpa24J2F-16" target="Hz8VNVOdCgkLCpa24J2F-18">
          <mxGeometry width="100" relative="1" as="geometry">
            <mxPoint x="530" y="240" as="sourcePoint" />
            <mxPoint x="630" y="240" as="targetPoint" />
            <Array as="points">
              <mxPoint x="640" y="210" />
            </Array>
          </mxGeometry>
        </mxCell>
        <mxCell id="Hz8VNVOdCgkLCpa24J2F-33" value="" style="edgeStyle=orthogonalEdgeStyle;html=1;endArrow=block;elbow=vertical;startArrow=block;startFill=1;endFill=1;strokeColor=#545B64;rounded=0;" edge="1" parent="1" source="Hz8VNVOdCgkLCpa24J2F-16" target="Hz8VNVOdCgkLCpa24J2F-7">
          <mxGeometry width="100" relative="1" as="geometry">
            <mxPoint x="380" y="390" as="sourcePoint" />
            <mxPoint x="280" y="390" as="targetPoint" />
          </mxGeometry>
        </mxCell>
      </root>
    </mxGraphModel>
  </diagram>
</mxfile>
